<svg width="53" height="51" viewBox="0 0 53 51" fill="none" xmlns="http://www.w3.org/2000/svg">
<path fill-rule="evenodd" clip-rule="evenodd" d="M44.7404 6.80656H2.83566V29.2605H16.3281V32.0885H10.5261V43.4005H7.62515V32.0885H2.83566V32.0888H6.53267e-05V35.3776H2.83566V47.4283H44.7404V6.80656ZM0 3.92786V50.307H47.576V3.92786H0ZM19.2033 17.3184H10.5003V11.6624H7.59937V25.8024H10.5003V20.1464H19.2033V25.8024H19.209L19.2264 30.1155H19.2291V43.4005H33.734V34.9165H22.1301V29.2605H22.0933V25.8024H22.1043V11.6624H19.2033V17.3184ZM27.9207 17.3043V14.5328H36.5947V17.3043H27.9207ZM27.9207 25.8024V20.2595H36.5947V25.8024H39.5101V11.6624H25.0052V25.8024H27.9207ZM39.5359 29.2605H36.6349V43.4005H39.5359V29.2605ZM22.1301 40.5725V37.7445H30.833V40.5725H22.1301Z" fill="#0A4175"/>
<path d="M47.576 0.223067V0H49.6725V0.223067H48.7563V2.7193H48.4923V0.223067H47.576Z" fill="#0A4175"/>
<path d="M50.2669 0H50.5718L51.6207 2.36876H51.6461L52.6951 0H53V2.7193H52.7516V0.524474H52.729L51.7534 2.7193H51.5134L50.5379 0.524474H50.5153V2.7193H50.2669V0Z" fill="#0A4175"/>
</svg>
